<mxfile host="65bd71144e">
    <diagram id="Lkra5sjvyhQqC_2qbyV4" name="第 1 页">
        <mxGraphModel dx="1054" dy="635" grid="1" gridSize="10" guides="1" tooltips="1" connect="1" arrows="1" fold="1" page="1" pageScale="1" pageWidth="1200" pageHeight="1920" background="#FFFFFF" math="0" shadow="0">
            <root>
                <mxCell id="0"/>
                <mxCell id="1" parent="0"/>
                <mxCell id="34" value="把一套的界面先打通" style="whiteSpace=wrap;html=1;" parent="1" vertex="1">
                    <mxGeometry x="460" y="380" width="120" height="60" as="geometry"/>
                </mxCell>
                <mxCell id="35" value="参考别人的系统" style="whiteSpace=wrap;html=1;" parent="1" vertex="1">
                    <mxGeometry x="180" y="150" width="120" height="60" as="geometry"/>
                </mxCell>
                <mxCell id="38" value="左边每一个打通" style="whiteSpace=wrap;html=1;" parent="1" vertex="1">
                    <mxGeometry x="370" y="290" width="120" height="60" as="geometry"/>
                </mxCell>
                <mxCell id="39" value="登录界面" style="whiteSpace=wrap;html=1;" parent="1" vertex="1">
                    <mxGeometry x="720" y="290" width="120" height="60" as="geometry"/>
                </mxCell>
                <mxCell id="41" value="BLOCK：是否可以不跳转到页面，直接在右边画" style="whiteSpace=wrap;html=1;" parent="1" vertex="1">
                    <mxGeometry x="340" y="120" width="120" height="60" as="geometry"/>
                </mxCell>
                <mxCell id="42" value="" style="shape=singleArrow;whiteSpace=wrap;html=1;arrowWidth=0.4;arrowSize=0.4;fillColor=#d80073;strokeColor=#A50040;fontColor=#ffffff;" parent="1" vertex="1">
                    <mxGeometry x="540" y="190" width="80" height="60" as="geometry"/>
                </mxCell>
                <mxCell id="43" value="BLOCK:无法跳转到webifo里面的页面" style="whiteSpace=wrap;html=1;" parent="1" vertex="1">
                    <mxGeometry x="370" y="210" width="120" height="60" as="geometry"/>
                </mxCell>
                <mxCell id="46" value="登录，如果选择了是管理员，那么就在管理员那个地方去寻找，然后登录相应的画面" style="whiteSpace=wrap;html=1;" parent="1" vertex="1">
                    <mxGeometry x="100" y="380" width="160" height="140" as="geometry"/>
                </mxCell>
                <mxCell id="47" value="两个身份" style="whiteSpace=wrap;html=1;" parent="1" vertex="1">
                    <mxGeometry x="630" y="190" width="120" height="60" as="geometry"/>
                </mxCell>
                <mxCell id="49" value="头上的导航蓝" style="whiteSpace=wrap;html=1;" parent="1" vertex="1">
                    <mxGeometry x="820" y="190" width="120" height="60" as="geometry"/>
                </mxCell>
                <mxCell id="50" value="背景是轮播图" style="whiteSpace=wrap;html=1;" parent="1" vertex="1">
                    <mxGeometry x="1020" y="200" width="120" height="60" as="geometry"/>
                </mxCell>
                <mxCell id="51" value="页面修改" style="whiteSpace=wrap;html=1;" parent="1" vertex="1">
                    <mxGeometry x="560" y="110" width="120" height="60" as="geometry"/>
                </mxCell>
                <mxCell id="52" value="跳转的逻辑" style="whiteSpace=wrap;html=1;" parent="1" vertex="1">
                    <mxGeometry x="710" y="110" width="120" height="60" as="geometry"/>
                </mxCell>
            </root>
        </mxGraphModel>
    </diagram>
</mxfile>